<svg width="20" height="20" viewBox="0 0 20 20" fill="none" xmlns="http://www.w3.org/2000/svg">
<path d="M20 20C13.3345 20 6.66893 20 0 20C0 13.3362 0 6.67146 0 0C6.66441 0 13.3322 0 20 0C20 6.66331 20 13.3309 20 20ZM10.22 18.0441C10.2388 18.0451 10.2576 18.0456 10.2765 18.0465C10.3239 17.8331 10.3744 17.6201 10.4185 17.4058C10.6196 16.4312 10.7947 15.446 11.1077 14.517C11.4429 13.5223 11.9281 12.6868 12.6004 12.0403C13.0139 11.6422 13.4637 11.3391 13.9386 11.0988C14.075 11.0297 14.1461 10.9568 14.1043 10.7396C14.0493 10.4537 14.0271 10.1578 13.9849 9.86715C13.8166 8.70839 13.5149 7.61199 13.0588 6.59568C12.3842 5.09161 11.4365 3.92806 10.3684 2.91799C10.2806 2.83501 10.2154 2.83501 10.1326 2.92038C9.84821 3.21295 9.55518 3.49065 9.27571 3.79137C8.4565 4.6729 7.78569 5.72134 7.28701 6.95012C6.79134 8.1717 6.52731 9.49065 6.38983 10.8561C6.38418 10.9127 6.42975 11.0101 6.47119 11.0379C6.61996 11.1381 6.77815 11.2139 6.9307 11.3041C7.95744 11.9118 8.75781 12.8365 9.26968 14.1731C9.62787 15.1089 9.81921 16.1161 10.0245 17.1185C10.0889 17.4273 10.1552 17.7357 10.22 18.0441Z" fill="#252422"/>
<path d="M10.2201 18.0441C10.1549 17.7352 10.0886 17.4268 10.0253 17.1175C9.82005 16.1151 9.62871 15.1079 9.27052 14.1721C8.75866 12.8359 7.95828 11.9112 6.93154 11.3031C6.779 11.2129 6.6208 11.1371 6.47203 11.0369C6.4306 11.0091 6.38465 10.9117 6.39067 10.8551C6.52815 9.48964 6.79218 8.17022 7.28785 6.94911C7.78653 5.72082 8.45734 4.6719 9.27655 3.79036C9.55564 3.49012 9.84905 3.21194 10.1334 2.91938C10.2159 2.83449 10.2811 2.83401 10.3692 2.91698C11.4374 3.92705 12.385 5.0906 13.0596 6.59468C13.5153 7.61098 13.8174 8.70739 13.9858 9.86614C14.028 10.1563 14.0502 10.4527 14.1052 10.7386C14.147 10.9558 14.0754 11.0292 13.9394 11.0978C13.4641 11.3386 13.0144 11.6417 12.6012 12.0393C11.9293 12.6863 11.4442 13.5213 11.1086 14.516C10.7956 15.4446 10.6208 16.4302 10.4193 17.4047C10.3749 17.6196 10.3248 17.8321 10.2773 18.0455C10.2577 18.046 10.2389 18.045 10.2201 18.0441ZM9.35677 12.1832C9.35075 12.188 9.36845 12.1812 9.37636 12.1664C9.40612 12.1103 9.43625 12.0532 9.45998 11.9928C9.74811 11.2594 9.88295 10.4719 9.93757 9.65607C9.94886 9.48964 9.87014 9.4671 9.79369 9.54624C9.63964 9.70643 9.49651 9.88628 9.35564 10.0676C9.29764 10.1424 9.25809 10.2422 9.19632 10.3558C8.91233 8.55535 9.48257 5.8671 10.2615 5.25223C10.6396 5.70211 11.037 6.65751 11.2502 7.63017C11.4114 8.36542 11.4359 9.95007 11.289 10.3352C11.1056 9.98604 10.9248 9.63545 10.5895 9.49252C10.5191 10.1227 10.8762 11.893 11.1839 12.2014C11.2532 12.1016 11.3206 11.9971 11.3937 11.9007C11.8683 11.2767 12.4144 10.787 13.0238 10.4196C13.2125 10.3055 13.2261 10.2791 13.1782 10.0115C13.127 9.72417 13.0852 9.43305 13.0212 9.15055C12.5628 7.12417 11.6517 5.52321 10.3632 4.27765C10.283 4.20043 10.2219 4.19084 10.1398 4.27142C9.61365 4.78748 9.12966 5.36302 8.7161 6.03496C7.98314 7.22585 7.53003 8.58461 7.31233 10.0858C7.28935 10.2455 7.32363 10.3189 7.42834 10.3932C7.74547 10.6187 8.07241 10.8292 8.36393 11.1036C8.70668 11.4259 9.01629 11.8086 9.35677 12.1832Z" fill="#EB5E28"/>
<path d="M9.35679 12.1832C9.0163 11.8086 8.70669 11.4258 8.36432 11.1035C8.0728 10.8292 7.74587 10.6187 7.42873 10.3932C7.32402 10.3189 7.28975 10.2455 7.31272 10.0858C7.53042 8.5846 7.98353 7.22585 8.71649 6.03496C9.13005 5.36302 9.61366 4.78748 10.1402 4.27141C10.2223 4.19084 10.2833 4.20043 10.3636 4.27765C11.6521 5.52321 12.5632 7.12417 13.0216 9.15055C13.0856 9.43304 13.1274 9.72417 13.1786 10.0115C13.2261 10.2791 13.2129 10.3055 13.0242 10.4196C12.4148 10.7875 11.8687 11.2767 11.3941 11.9007C11.3206 11.9971 11.2536 12.1016 11.1843 12.2014C10.8766 11.893 10.5195 10.1223 10.5899 9.49252C10.9252 9.63544 11.1059 9.98604 11.2894 10.3352C11.4363 9.95007 11.4118 8.36542 11.2506 7.63017C11.0374 6.6575 10.64 5.70163 10.2619 5.25223C9.48334 5.8671 8.9131 8.55535 9.19671 10.3558C9.25848 10.2422 9.29803 10.1424 9.35604 10.0676C9.49652 9.88628 9.63965 9.70643 9.79408 9.54623C9.87016 9.4671 9.94888 9.48964 9.93796 9.65606C9.88334 10.4719 9.7485 11.2594 9.46037 11.9928C9.43664 12.0537 9.40651 12.1103 9.37675 12.1664C9.36847 12.1812 9.35076 12.188 9.35679 12.1832Z" fill="#252422"/>
</svg>
